# xmcd
#
# Track frame offsets:
#	150
#	13060
#	32385
#	53493
#	71560
#	84849
#	101529
#	119236
#	130321
#	143939
#	158616
#	178287
#	196330
#	217357
#	234396
#	251983
#	268150
#	284614
#	300557
#	314360
#
# Disc length: 4394 seconds
#
# Revision: 0
# Processed by: cddbd v1.5.2PL0 Copyright (c) Steve Scherf et al.
# Submitted via: EZCDAudioConverter 7.1.0.1
#
DISCID=2d112814
DTITLE=Nu Urban Traxx Volume 252 US
DYEAR=2018
DGENRE=blues
TTITLE0=Quavo - W O R K I N M E
TTITLE1=Migos - Narcos
TTITLE2=Shy Glizzy ft. Tory Lanez and Gunna - Do You Understand
TTITLE3=Drake - Nonstop
TTITLE4=Cardi B ft. Kehlani - Ring
TTITLE5=Yella Beezy - That's On Me
TTITLE6=Meek Mill ft. Jeremih and PnB Rock - Dangerous
TTITLE7=Kanye West - All Mine
TTITLE8=6ix9ine ft. Nicki Minaj - Fefe
TTITLE9=Dreezy - Where Them $ @
TTITLE10=DJ Khaled ft. Justin Bieber, Chance The Rapper and Quavo - No Brainer
TTITLE11=Fat Joe ft. Chris Brown and Dre - Attention
TTITLE12=Zaytoven ft. Future - Mo Reala
TTITLE13=Wiz Khalifa ft. Swae Lee - Hopeless Romantic
TTITLE14=Jhene Aiko ft. YG - Never Call Me
TTITLE15=Lil Duval ft. Snoop Dogg and Ball Greezy - Smile (Best Life)
TTITLE16=Yung Bleu - Ice On My Baby
TTITLE17=Vivian Green - Vibes
TTITLE18=Tory Lanez and Rich The Kid - Talk To Me
TTITLE19=John Legend ft. Bloodpop - A Good Night
EXTD=
EXTT0=
EXTT1=
EXTT2=
EXTT3=
EXTT4=
EXTT5=
EXTT6=
EXTT7=
EXTT8=
EXTT9=
EXTT10=
EXTT11=
EXTT12=
EXTT13=
EXTT14=
EXTT15=
EXTT16=
EXTT17=
EXTT18=
EXTT19=
PLAYORDER=
